<svg fill="none" height="512" viewBox="0 0 36 36" width="512" xmlns="http://www.w3.org/2000/svg"><path d="m27.1082 31.8424c-5.5597 2.3827-11.9135 3.177-19.85587-1.5884-9.95313-4.9138.79422-10.3251-.00002-14.2963-.79423-3.9711-2.38271-8.73652 3.17689-11.91347 9.7523-5.57272 12.7078 1.58847 19.0617 5.55964 6.3538 3.97113 3.1769 19.85583-2.3827 22.23853z" fill="#efefef"/><path d="m8 11.25c-.41421 0-.75.3358-.75.75v16c0 .4142.33579.75.75.75h20c.4142 0 .75-.3358.75-.75v-16c0-.4142-.3358-.75-.75-.75z" fill="#f3f3f1"/><path clip-rule="evenodd" d="m7.25 12c0-.4142.33579-.75.75-.75h2.5c-.4142 0-.75.3358-.75.75v16c0 .4142.3358.75.75.75h-2.5c-.41421 0-.75-.3358-.75-.75z" fill="#d6dbe1" fill-rule="evenodd"/><path d="m11.1579 7.25c-.2295 0-.4464.10511-.5887.28527l-3.15786 4.00003c-.1781.2256-.21161.5331-.08626.7918.12535.2586.3875.4229.67493.4229h19.99999c.2758 0 .5293-.1513.6602-.3941.1308-.2427.1179-.5377-.0336-.7681l-2.6316-4.00001c-.1387-.21085-.3742-.33779-.6266-.33779z" fill="#2edf84"/><path clip-rule="evenodd" d="m10.5692 7.53527c.1423-.18016.3592-.28527.5887-.28527h2.5c-.2295 0-.4464.10511-.5887.28527l-3.15786 4.00003c-.1781.2256-.21161.5331-.08626.7918.12535.2586.38752.4229.67492.4229h-2.49999c-.28743 0-.54958-.1643-.67493-.4229-.12535-.2587-.09184-.5662.08626-.7918z" fill="#00b872" fill-rule="evenodd"/><path d="m22.75 15c0-.238-.113-.4619-.3044-.6033-.1915-.1414-.4387-.1835-.6662-.1135l-6 1.8461c-.3147.0969-.5294.3876-.5294.7169v3.5318c-.2346-.0829-.487-.128-.75-.128-1.2426 0-2.25 1.0074-2.25 2.25s1.0074 2.25 2.25 2.25c1.2418 0 2.2487-1.006 2.25-2.2476 0-.0008 0-.0016 0-.0024v-5.0999l4.5-1.3846v3.3625c-.2346-.0829-.487-.128-.75-.128-1.2426 0-2.25 1.0074-2.25 2.25s1.0074 2.25 2.25 2.25c1.2418 0 2.2487-1.006 2.25-2.2476 0-.0008 0-.0016 0-.0024z" fill="#f3f3f1"/><path d="m17.25 12.75v-5.5h1.5v5.5z" fill="#2edf84"/><g clip-rule="evenodd" fill-rule="evenodd"><path d="m7.25 12c0-.4142.33579-.75.75-.75h20c.4142 0 .75.3358.75.75v16c0 .4142-.3358.75-.75.75h-20c-.41421 0-.75-.3358-.75-.75zm1.5.75v14.5h18.5v-14.5z" fill="#000"/><path d="m10.5692 7.53527c.1423-.18016.3592-.28527.5887-.28527h14.2105c.2524 0 .4879.12694.6266.33779l2.6316 4.00001c.1515.2304.1644.5254.0336.7681-.1309.2428-.3844.3941-.6602.3941h-19.99999c-.28743 0-.54958-.1643-.67493-.4229-.12535-.2587-.09184-.5662.08626-.7918zm.9522 1.21473-1.97373 2.5h17.06113l-1.6447-2.5z" fill="#000"/><path d="m20.5 23c.8284 0 1.5-.6716 1.5-1.5s-.6716-1.5-1.5-1.5-1.5.6716-1.5 1.5.6716 1.5 1.5 1.5zm-6 1c.8284 0 1.5-.6716 1.5-1.5s-.6716-1.5-1.5-1.5-1.5.6716-1.5 1.5.6716 1.5 1.5 1.5z" fill="#2edf84"/><path d="m21.25 22.7993c-.2206.1277-.4768.2007-.75.2007-.8284 0-1.5-.6716-1.5-1.5s.6716-1.5 1.5-1.5c.2732 0 .5294.073.75.2007-.4484.2593-.75.7441-.75 1.2993s.3016 1.04.75 1.2993zm-6 1c-.2206.1277-.4768.2007-.75.2007-.8284 0-1.5-.6716-1.5-1.5s.6716-1.5 1.5-1.5c.2732 0 .5294.073.75.2007-.4484.2593-.75.7441-.75 1.2993s.3016 1.04.75 1.2993z" fill="#00b872"/><path d="m14.5 21.75c-.4142 0-.75.3358-.75.75s.3358.75.75.75.75-.3358.75-.75-.3358-.75-.75-.75zm-2.25.75c0-1.2426 1.0074-2.25 2.25-2.25s2.25 1.0074 2.25 2.25-1.0074 2.25-2.25 2.25-2.25-1.0074-2.25-2.25z" fill="#000"/><path d="m20.5 20.75c-.4142 0-.75.3358-.75.75s.3358.75.75.75.75-.3358.75-.75-.3358-.75-.75-.75zm-2.25.75c0-1.2426 1.0074-2.25 2.25-2.25s2.25 1.0074 2.25 2.25-1.0074 2.25-2.25 2.25-2.25-1.0074-2.25-2.25z" fill="#000"/><path d="m22.4456 14.3967c.1914.1414.3044.3653.3044.6033v6.5h-1.5v-5.4845l-4.5 1.3846v5.0999h-1.5v-5.6538c0-.3293.2147-.62.5294-.7169l6-1.8461c.2275-.07.4747-.0279.6662.1135z" fill="#000"/><path d="m18 7.25c.4142 0 .75.33579.75.75v4c0 .4142-.3358.75-.75.75s-.75-.3358-.75-.75v-4c0-.41421.3358-.75.75-.75z" fill="#000"/><path d="m3.5 13c.27614 0 .5-.2239.5-.5s-.22386-.5-.5-.5-.5.2239-.5.5.22386.5.5.5zm0 1c.82843 0 1.5-.6716 1.5-1.5s-.67157-1.5-1.5-1.5-1.5.6716-1.5 1.5.67157 1.5 1.5 1.5z" fill="#a4afc1"/></g></svg>