<svg fill="none" height="512" viewBox="0 0 36 36" width="512" xmlns="http://www.w3.org/2000/svg"><path d="m17.0589 26.9956c-3.0501-3.0501-9.15029.7625-12.20038-3.8127-6.10019-12.9628 4.57517-19.82555 6.86278-18.30051 2.2875 1.52504 5.5919-.00001 12.2003-1.52504 9.9128-2.28758 6.1002 6.86275 8.3878 14.48795s-1.5251 9.1503-5.3377 12.9629-6.1002 0-9.9128-3.8126z" fill="#efefef"/><path d="m19 20.25c-2.0711 0-3.75 1.6789-3.75 3.75s1.6789 3.75 3.75 3.75 3.75-1.6789 3.75-3.75-1.6789-3.75-3.75-3.75z" fill="#2edf84"/><g clip-rule="evenodd" fill-rule="evenodd"><path d="m15.25 24c0-2.0711 1.6789-3.75 3.75-3.75.4383 0 .859.0752 1.25.2134-1.4565.5148-2.5 1.9038-2.5 3.5366s1.0435 3.0218 2.5 3.5366c-.391.1382-.8117.2134-1.25.2134-2.0711 0-3.75-1.6789-3.75-3.75z" fill="#00b872"/><path d="m21.25 10c0-.41421.3358-.75.75-.75 3.1756 0 5.75 2.5744 5.75 5.75h-1.5c0-2.0913-1.5105-3.8298-3.5-4.184v12.684h-1.5z" fill="#000"/><path d="m19 10.75h-10v-1.5h10z" fill="#000"/><path d="m19 13.75h-10v-1.5h10z" fill="#000"/><path d="m14 16.75h-5v-1.5h5z" fill="#000"/><path d="m19 21.75c-1.2426 0-2.25 1.0074-2.25 2.25s1.0074 2.25 2.25 2.25 2.25-1.0074 2.25-2.25-1.0074-2.25-2.25-2.25zm-3.75 2.25c0-2.0711 1.6789-3.75 3.75-3.75s3.75 1.6789 3.75 3.75-1.6789 3.75-3.75 3.75-3.75-1.6789-3.75-3.75z" fill="#000"/><path d="m11.5 29c.2761 0 .5-.2239.5-.5s-.2239-.5-.5-.5-.5.2239-.5.5.2239.5.5.5zm0 1c.8284 0 1.5-.6716 1.5-1.5s-.6716-1.5-1.5-1.5-1.5.6716-1.5 1.5.6716 1.5 1.5 1.5z" fill="#a4afc1"/></g></svg>