<svg fill="none" height="512" viewBox="0 0 36 36" width="512" xmlns="http://www.w3.org/2000/svg"><path d="m18 14.25c-2.0711 0-3.75 1.6789-3.75 3.75s1.6789 3.75 3.75 3.75 3.75-1.6789 3.75-3.75-1.6789-3.75-3.75-3.75z" fill="#2edf84"/><g clip-rule="evenodd" fill-rule="evenodd"><path d="m14.25 18c0-2.0711 1.6789-3.75 3.75-3.75.4383 0 .859.0752 1.25.2134-1.4565.5148-2.5 1.9038-2.5 3.5366s1.0435 3.0218 2.5 3.5366c-.391.1382-.8117.2134-1.25.2134-2.0711 0-3.75-1.6789-3.75-3.75z" fill="#00b872"/><path d="m18 15.75c-1.2426 0-2.25 1.0074-2.25 2.25s1.0074 2.25 2.25 2.25 2.25-1.0074 2.25-2.25-1.0074-2.25-2.25-2.25zm-3.75 2.25c0-2.0711 1.6789-3.75 3.75-3.75s3.75 1.6789 3.75 3.75-1.6789 3.75-3.75 3.75-3.75-1.6789-3.75-3.75z" fill="#000"/><path d="m20.25 8c0-.41421.3358-.75.75-.75h.5v.75h.25v10h-1.5z" fill="#000"/><path d="m18 8.75c-5.1086 0-9.25 4.1414-9.25 9.25s4.1414 9.25 9.25 9.25 9.25-4.1414 9.25-9.25h1.5c0 5.9371-4.8129 10.75-10.75 10.75s-10.75-4.8129-10.75-10.75 4.8129-10.75 10.75-10.75z" fill="#000"/><path d="m26.5 14v.5h1.5v-.5c0-3.7279-3.0221-6.75-6.75-6.75h-.25v1.5h.25c2.8995 0 5.25 2.3505 5.25 5.25z" fill="#000"/></g></svg>