<svg fill="none" height="512" viewBox="0 0 36 36" width="512" xmlns="http://www.w3.org/2000/svg"><g clip-rule="evenodd" fill-rule="evenodd"><path d="m27 12.75h-8v-1.5h8z" fill="#DADCD9"/><path d="m27 20.75h-18v-1.5h18z" fill="#DADCD9"/><path d="m27 28.75h-18v-1.5h18z" fill="#DADCD9"/><path d="m8.63048 7.34735c.23513-.13313.52369-.12949.75539.00953l7.50003 4.50002c.2259.1355.3641.3797.3641.6431s-.1382.5076-.3641.6431l-7.50003 4.5c-.2317.139-.52026.1427-.75539.0095-.23514-.1331-.38048-.3824-.38048-.6526v-9c0-.2702.14534-.51952.38048-.65265zm1.11952 1.97729v6.35076l5.2923-3.1754z" fill="#DADCD9"/></g></svg>