<svg fill="none" height="512" viewBox="0 0 36 36" width="512" xmlns="http://www.w3.org/2000/svg"><path d="m15.8916 4.54927c5.6255-3.12524 11.7197-1.56262 14.0636 3.12524 9.3757 18.75149-4.6878 22.65799-17.9701 24.22059-13.28231 1.5627-9.37575-14.8449-3.90658-15.6262 5.46918-.7813.78132-7.81308 7.81308-11.71963z" fill="#efefef"/><g clip-rule="evenodd" fill-rule="evenodd"><path d="m15.25 9c0-.9665.7835-1.75 1.75-1.75h2c.9665 0 1.75.7835 1.75 1.75v16c0 .4142-.3358.75-.75.75h-4c-.4142 0-.75-.3358-.75-.75zm-6.25 2.25c-.9665 0-1.75.7835-1.75 1.75v12c0 .4142.33579.75.75.75h4c.4142 0 .75-.3358.75-.75v-12c0-.9665-.7835-1.75-1.75-1.75zm16 3c-.9665 0-1.75.7835-1.75 1.75v9c0 .4142.3358.75.75.75h4c.4142 0 .75-.3358.75-.75v-9c0-.9665-.7835-1.75-1.75-1.75z" fill="#2edf84"/><path d="m17 7.25c-.9665 0-1.75.7835-1.75 1.75v4 12c0 .4142.3358.75.75.75h2.5c-.4142 0-.75-.3358-.75-.75v-16c0-.88162.6519-1.61097 1.5-1.73228-.0816-.01168-.1651-.01772-.25-.01772zm6.25 8.75v9c0 .4142.3358.75.75.75h2.5c-.4142 0-.75-.3358-.75-.75v-9c0-.8816.6519-1.611 1.5-1.7323-.0816-.0117-.1651-.0177-.25-.0177h-2c-.9665 0-1.75.7835-1.75 1.75zm-12-4.7323c-.0817-.0117-.1651-.0177-.25-.0177h-2c-.9665 0-1.75.7835-1.75 1.75v12c0 .4142.33579.75.75.75h2.5c-.4142 0-.75-.3358-.75-.75v-12c0-.8816.6519-1.611 1.5-1.7323z" fill="#00b872"/><path d="m7.25 13c0-.9665.7835-1.75 1.75-1.75h2c.9665 0 1.75.7835 1.75 1.75v12c0 .4142-.3358.75-.75.75h-4c-.41421 0-.75-.3358-.75-.75zm1.75-.25c-.13807 0-.25.1119-.25.25v11.25h2.5v-11.25c0-.1381-.1119-.25-.25-.25z" fill="#000"/><path d="m23.25 16c0-.9665.7835-1.75 1.75-1.75h2c.9665 0 1.75.7835 1.75 1.75v9c0 .4142-.3358.75-.75.75h-4c-.4142 0-.75-.3358-.75-.75zm1.75-.25c-.1381 0-.25.1119-.25.25v8.25h2.5v-8.25c0-.1381-.1119-.25-.25-.25z" fill="#000"/><path d="m15.25 9c0-.9665.7835-1.75 1.75-1.75h2c.9665 0 1.75.7835 1.75 1.75v16c0 .4142-.3358.75-.75.75h-4c-.4142 0-.75-.3358-.75-.75zm1.75-.25c-.1381 0-.25.11193-.25.25v15.25h2.5v-15.25c0-.13807-.1119-.25-.25-.25z" fill="#000"/><path d="m12 28.75h-4v-1.5h4z" fill="#000"/><path d="m20 28.75h-4v-1.5h4z" fill="#000"/><path d="m28 28.75h-4v-1.5h4z" fill="#000"/><path d="m27.5 9c.2761 0 .5-.22386.5-.5s-.2239-.5-.5-.5-.5.22386-.5.5.2239.5.5.5zm0 1c.8284 0 1.5-.67157 1.5-1.5s-.6716-1.5-1.5-1.5-1.5.67157-1.5 1.5.6716 1.5 1.5 1.5z" fill="#a4afc1"/></g></svg>