<svg fill="none" height="512" viewBox="0 0 36 36" width="512" xmlns="http://www.w3.org/2000/svg"><path d="m20.5899 30.3659c-6.5561 2.384-14.52779-.7451-16.39033-4.4701-2.98007-5.9602 0-14.1554 4.4701-17.88044 4.47013-3.72508 10.43023-3.72508 11.17523-1.49003s3.7251 2.23505 9.6852 3.72507c5.9602 1.49 2.8858 10.533.7451 11.1753-7.4502 2.235-1.4901 5.9601-9.6853 8.9402z" fill="#efefef"/><path d="m16 9.25c-2.6234 0-4.75 2.1266-4.75 4.75s2.1266 4.75 4.75 4.75 4.75-2.1266 4.75-4.75-2.1266-4.75-4.75-4.75z" fill="#f3f3f1"/><path clip-rule="evenodd" d="m11.25 14c0-2.6234 2.1266-4.75 4.75-4.75.4326 0 .8517.05783 1.25.16619-2.0169.54872-3.5 2.39311-3.5 4.58381s1.4831 4.0351 3.5 4.5838c-.3983.1084-.8174.1662-1.25.1662-2.6234 0-4.75-2.1266-4.75-4.75z" fill="#d6dbe1" fill-rule="evenodd"/><path d="m13.6 20.25c-3.507 0-6.35 2.843-6.35 6.35 0 1.1874.96259 2.15 2.15 2.15h13.2c1.1874 0 2.15-.9626 2.15-2.15 0-3.507-2.843-6.35-6.35-6.35z" fill="#999"/><path clip-rule="evenodd" d="m7.25 26.6c0-3.507 2.843-6.35 6.35-6.35h2.5c-3.507 0-6.35 2.843-6.35 6.35 0 1.1874.9626 2.15 2.15 2.15h-2.5c-1.18741 0-2.15-.9626-2.15-2.15z" fill="#00b872" fill-rule="evenodd"/><path clip-rule="evenodd" d="m16 10.75c-1.7949 0-3.25 1.4551-3.25 3.25s1.4551 3.25 3.25 3.25 3.25-1.4551 3.25-3.25-1.4551-3.25-3.25-3.25zm-4.75 3.25c0-2.6234 2.1266-4.75 4.75-4.75s4.75 2.1266 4.75 4.75-2.1266 4.75-4.75 4.75-4.75-2.1266-4.75-4.75z" fill="#555" fill-rule="evenodd"/><path d="m25 18.5c0 .8284-.6716 1.5-1.5 1.5s-1.5-.6716-1.5-1.5.6716-1.5 1.5-1.5 1.5.6716 1.5 1.5z" fill="#999"/><g clip-rule="evenodd" fill-rule="evenodd"><path d="m24.25 17.2007c-.4484.2593-.75.7441-.75 1.2993s.3016 1.04.75 1.2993c-.2206.1277-.4768.2007-.75.2007-.8284 0-1.5-.6716-1.5-1.5s.6716-1.5 1.5-1.5c.2732 0 .5294.073.75.2007z" fill="#999"/><path d="m23.5 17.75c-.4142 0-.75.3358-.75.75s.3358.75.75.75.75-.3358.75-.75-.3358-.75-.75-.75zm-2.25.75c0-1.2426 1.0074-2.25 2.25-2.25s2.25 1.0074 2.25 2.25-1.0074 2.25-2.25 2.25-2.25-1.0074-2.25-2.25z" fill="#555"/><path d="m25.75 13.75h2.25v-1.5h-3c-.4142 0-.75.3358-.75.75v5.1538h1.5z" fill="#555"/><path d="m7.25 26.6c0-3.507 2.843-6.35 6.35-6.35h4.8c3.507 0 6.35 2.843 6.35 6.35 0 1.1874-.9626 2.15-2.15 2.15h-13.2c-1.18741 0-2.15-.9626-2.15-2.15zm6.35-4.85c-2.6786 0-4.85 2.1714-4.85 4.85 0 .359.29101.65.65.65h13.2c.359 0 .65-.291.65-.65 0-2.6786-2.1714-4.85-4.85-4.85z" fill="#555"/><path d="m29.4996 27h2v1h-2z" fill="#90a4ad"/><path d="m28.4999 28.9996v2h-1v-2z" fill="#90a4ad"/></g></svg>