<svg fill="none" height="512" viewBox="0 0 36 36" width="512" xmlns="http://www.w3.org/2000/svg"><path d="m24.4416 5.99356c-4.4194-4.41937-12.9997-3.32761-17.9537-.69052-7.080224 3.76888-2.07158 20.71576 3.45263 25.54946 5.52417 4.8337 19.33477 2.7621 22.09687-.6905s-.6905-8.2863-6.9053-11.739c-6.2147-3.4526 4.8337-6.9052-.6905-12.42944z" fill="#efefef"/><path d="m12 19.25c-2.07107 0-3.75 1.6789-3.75 3.75s1.67893 3.75 3.75 3.75c2.0711 0 3.75-1.6789 3.75-3.75s-1.6789-3.75-3.75-3.75z" fill="#2edf84"/><path clip-rule="evenodd" d="m8.25 23c0-2.0711 1.67893-3.75 3.75-3.75.4383 0 .859.0752 1.25.2134-1.4565.5148-2.5 1.9038-2.5 3.5366s1.0435 3.0218 2.5 3.5366c-.391.1382-.8117.2134-1.25.2134-2.07107 0-3.75-1.6789-3.75-3.75z" fill="#00b872" fill-rule="evenodd"/><path d="m22 16.25c-2.0711 0-3.75 1.6789-3.75 3.75s1.6789 3.75 3.75 3.75 3.75-1.6789 3.75-3.75-1.6789-3.75-3.75-3.75z" fill="#2edf84"/><g clip-rule="evenodd" fill-rule="evenodd"><path d="m18.25 20c0-2.0711 1.6789-3.75 3.75-3.75.4383 0 .859.0752 1.25.2134-1.4565.5148-2.5 1.9038-2.5 3.5366s1.0435 3.0218 2.5 3.5366c-.391.1382-.8117.2134-1.25.2134-2.0711 0-3.75-1.6789-3.75-3.75z" fill="#00b872"/><path d="m25.7079 12.7523c.1369.3909-.0692.8188-.4601.9556l-10 3.5c-.391.1369-.8188-.0692-.9557-.4601-.1368-.391.0692-.8188.4602-.9557l10-3.5c.3909-.1368.8188.0692.9556.4602z" fill="#2edf84"/><path d="m25.434 8.38832c.1982.14064.316.36863.316.61169v10.99999c0 .4142-.3358.75-.75.75s-.75-.3358-.75-.75v-9.9429l-8.5 2.975v9.5925c0 .4142-.3358.75-.75.75s-.75-.3358-.75-.75v-10.1246c0-.3187.2014-.6026.5022-.7079l10-3.49999c.2294-.08029.4835-.04443.6818.09621z" fill="#2edf84"/><path d="m12 20.75c-1.2426 0-2.25 1.0074-2.25 2.25s1.0074 2.25 2.25 2.25 2.25-1.0074 2.25-2.25-1.0074-2.25-2.25-2.25zm-3.75 2.25c0-2.0711 1.67893-3.75 3.75-3.75 2.0711 0 3.75 1.6789 3.75 3.75s-1.6789 3.75-3.75 3.75c-2.07107 0-3.75-1.6789-3.75-3.75z" fill="#000"/><path d="m22 17.75c-1.2426 0-2.25 1.0074-2.25 2.25s1.0074 2.25 2.25 2.25 2.25-1.0074 2.25-2.25-1.0074-2.25-2.25-2.25zm-3.75 2.25c0-2.0711 1.6789-3.75 3.75-3.75s3.75 1.6789 3.75 3.75-1.6789 3.75-3.75 3.75-3.75-1.6789-3.75-3.75z" fill="#000"/><path d="m25.434 8.38832c.1982.14064.316.36863.316.61169v10.99999h-1.5v-9.9429l-8.5 2.975v9.5925h-1.5v-10.1246c0-.3187.2014-.6026.5022-.7079l10-3.49999c.2294-.08029.4835-.04443.6818.09621z" fill="#000"/><path d="m25.2478 13.7079-10 3.5-.4955-1.4158 10-3.5z" fill="#000"/><path d="m9.65688 9.53554 1.41422-1.41422.7071.70711-1.4142 1.41417z" fill="#90a4ad"/><path d="m6.12136 13.0711 1.41421-1.4143.70711.7072-1.41422 1.4142z" fill="#90a4ad"/><path d="m10.364 11.6569 1.4142 1.4142-.7071.7071-1.41421-1.4142z" fill="#90a4ad"/><path d="m6.82848 8.12129 1.41421 1.41422-.70711.70709-1.41421-1.4142z" fill="#90a4ad"/></g></svg>