<svg fill="none" height="512" viewBox="0 0 36 36" width="512" xmlns="http://www.w3.org/2000/svg"><path d="m21.9048 29.6234c-3.8242 3.4533-9.7805 1.1643-12.57492-.6986-5.58887-4.1917-9.068312-17.6273-3.53705-21.27832 4.89027-3.22792 7.68467 1.39722 18.76387-3.22792 8.3226-3.474403 10.5777 15.80284 6.386 16.50144-4.1916.6986-5.5889 5.5889-9.0379 8.7034z" fill="#efefef"/><g clip-rule="evenodd" fill-rule="evenodd"><path d="m25.75 9.00001c0-.24306-.1178-.47105-.316-.61169-.1983-.14064-.4524-.1765-.6818-.09621l-10 3.49999c-.3008.1053-.5022.3892-.5022.7079v7.4997c-.6267-.4707-1.4058-.7497-2.25-.7497-2.07107 0-3.75 1.6789-3.75 3.75s1.67893 3.75 3.75 3.75c2.0711 0 3.75-1.6789 3.75-3.75 0-.1167-.0053-.2322-.0158-.3463.0104-.0496.0158-.101.0158-.1537v-9.4679l8.5-2.975v6.9426c-.6267-.4707-1.4058-.7497-2.25-.7497-2.0711 0-3.75 1.6789-3.75 3.75s1.6789 3.75 3.75 3.75 3.75-1.6789 3.75-3.75z" fill="#999"/><path d="m25.75 10.4071-1.5.525v5.3261c.0826-.0054.166-.0082.25-.0082.4383 0 .859.0752 1.25.2134zm-2.5 13.1295c-1.4565-.5148-2.5-1.9038-2.5-3.5366s1.0435-3.0218 2.5-3.5366c-.391-.1382-.8117-.2134-1.25-.2134-2.0711 0-3.75 1.6789-3.75 3.75s1.6789 3.75 3.75 3.75c.4383 0 .859-.0752 1.25-.2134zm-6.5-10.8545-1 .35v6.4313c-.391-.1382-.8117-.2134-1.25-.2134-.084 0-.1674.0028-.25.0082v-6.7582c0-.3187.2014-.6026.5022-.7079l10-3.49999c.2294-.08029.4835-.04443.6818.09621.1496.10618.2535.26215.2953.43681l-8.4771 2.96697c-.3008.1053-.5022.3892-.5022.7079zm-3.5 6.7813c-1.4565.5148-2.5 1.9038-2.5 3.5366s1.0435 3.0218 2.5 3.5366c-.391.1382-.8117.2134-1.25.2134-2.07107 0-3.75-1.6789-3.75-3.75s1.67893-3.75 3.75-3.75c.4383 0 .859.0752 1.25.2134z" fill="#999"/><path d="m12 20.75c-1.2426 0-2.25 1.0074-2.25 2.25s1.0074 2.25 2.25 2.25 2.25-1.0074 2.25-2.25-1.0074-2.25-2.25-2.25zm-3.75 2.25c0-2.0711 1.67893-3.75 3.75-3.75 2.0711 0 3.75 1.6789 3.75 3.75s-1.6789 3.75-3.75 3.75c-2.07107 0-3.75-1.6789-3.75-3.75z" fill="#555"/><path d="m22 17.75c-1.2426 0-2.25 1.0074-2.25 2.25s1.0074 2.25 2.25 2.25 2.25-1.0074 2.25-2.25-1.0074-2.25-2.25-2.25zm-3.75 2.25c0-2.0711 1.6789-3.75 3.75-3.75s3.75 1.6789 3.75 3.75-1.6789 3.75-3.75 3.75-3.75-1.6789-3.75-3.75z" fill="#555"/><path d="m25.434 8.38832c.1982.14064.316.36863.316.61169v10.99999h-1.5v-9.9429l-8.5 2.975v9.4679h-1.5v-10c0-.3187.2014-.6026.5022-.7079l10-3.49999c.2294-.08029.4835-.04443.6818.09621z" fill="#555"/><path d="m31.5 27c.2761 0 .5-.2239.5-.5s-.2239-.5-.5-.5-.5.2239-.5.5.2239.5.5.5zm0 1c.8284 0 1.5-.6716 1.5-1.5s-.6716-1.5-1.5-1.5-1.5.6716-1.5 1.5.6716 1.5 1.5 1.5z" fill="#a4afc1"/></g></svg>