<?xml version="1.0" encoding="UTF-8"?>
<svg width="360px" height="360px" viewBox="0 0 36 36" xmlns="http://www.w3.org/2000/svg" xmlns:xlink="http://www.w3.org/1999/xlink" version="1.1">
 <path id="路径" d="M18 8.25 C12.615 8.25 8.25 12.615 8.25 18 8.25 23.385 12.615 27.75 18 27.75 23.385 27.75 27.75 23.385 27.75 18 27.75 12.615 23.385 8.25 18 8.25 Z" fill="#2edf84" fill-opacity="1" stroke="none"/>
 <path id="路径-1" d="M8.25 18 C8.25 12.615 12.615 8.25 18 8.25 18.424 8.25 18.841 8.277 19.25 8.329 14.456 8.943 10.75 13.039 10.75 18 10.75 22.961 14.456 27.057 19.25 27.671 18.841 27.723 18.424 27.75 18 27.75 12.615 27.75 8.25 23.385 8.25 18 Z" fill="#00b872" fill-opacity="1" stroke="none"/>
 <path id="路径-2" d="M18 15.25 C16.481 15.25 15.25 16.481 15.25 18 15.25 19.519 16.481 20.75 18 20.75 19.519 20.75 20.75 19.519 20.75 18 20.75 16.481 19.519 15.25 18 15.25 Z" fill="#f3f3f1" fill-opacity="1" stroke="none"/>
 <path id="路径-3" d="M15.25 18 C15.25 16.481 16.481 15.25 18 15.25 18.45 15.25 18.875 15.358 19.25 15.55 18.36 16.005 17.75 16.931 17.75 18 17.75 19.069 18.36 19.995 19.25 20.45 18.875 20.642 18.45 20.75 18 20.75 16.481 20.75 15.25 19.519 15.25 18 Z" fill="#d6dbe1" fill-opacity="1" stroke="none"/>
 <path id="路径-4" d="M18 9.75 C13.444 9.75 9.75 13.444 9.75 18 9.75 22.556 13.444 26.25 18 26.25 22.556 26.25 26.25 22.556 26.25 18 26.25 13.444 22.556 9.75 18 9.75 Z M8.25 18 C8.25 12.615 12.615 8.25 18 8.25 23.385 8.25 27.75 12.615 27.75 18 27.75 23.385 23.385 27.75 18 27.75 12.615 27.75 8.25 23.385 8.25 18 Z" fill="#000000" fill-opacity="1" stroke="none"/>
 <path id="路径-5" d="M18 16.75 C17.31 16.75 16.75 17.31 16.75 18 16.75 18.69 17.31 19.25 18 19.25 18.69 19.25 19.25 18.69 19.25 18 19.25 17.31 18.69 16.75 18 16.75 Z M15.25 18 C15.25 16.481 16.481 15.25 18 15.25 19.519 15.25 20.75 16.481 20.75 18 20.75 19.519 19.519 20.75 18 20.75 16.481 20.75 15.25 19.519 15.25 18 Z" fill="#000000" fill-opacity="1" stroke="none"/>
 <g id="group">
  <path id="路径-6" d="M13.324 18.377 C13.81 20.602 15.483 22.385 17.645 23.029 L17.217 24.466 C14.535 23.668 12.462 21.459 11.859 18.697 Z" fill="#000000" fill-opacity="1" stroke="none"/>
 </g>
</svg>
