<svg fill="none" height="512" viewBox="0 0 36 36" width="512" xmlns="http://www.w3.org/2000/svg"><path d="m21.9048 29.6234c-3.8242 3.4533-9.7805 1.1643-12.57492-.6986-5.58887-4.1917-9.068312-17.6273-3.53705-21.27832 4.89027-3.22792 7.68467 1.39722 18.76387-3.22792 8.3226-3.474403 10.5777 15.80284 6.386 16.50144-4.1916.6986-5.5889 5.5889-9.0379 8.7034z" fill="#efefef"/><path d="m17 9.25c-5.3848 0-9.75 4.3652-9.75 9.75s4.3652 9.75 9.75 9.75 9.75-4.3652 9.75-9.75-4.3652-9.75-9.75-9.75z" fill="#2edf84"/><path clip-rule="evenodd" d="m7.25 19c0-5.3848 4.3652-9.75 9.75-9.75.4235 0 .8407.027 1.25.07938-4.7944.61358-8.5 4.70932-8.5 9.67062s3.7056 9.057 8.5 9.6706c-.4093.0524-.8265.0794-1.25.0794-5.3848 0-9.75-4.3652-9.75-9.75z" fill="#00b872" fill-rule="evenodd"/><path d="m17 16.25c-1.5188 0-2.75 1.2312-2.75 2.75s1.2312 2.75 2.75 2.75 2.75-1.2312 2.75-2.75-1.2312-2.75-2.75-2.75z" fill="#f3f3f1"/><path clip-rule="evenodd" d="m14.25 19c0-1.5188 1.2312-2.75 2.75-2.75.4501 0 .875.1081 1.25.2999-.8904.4551-1.5 1.3814-1.5 2.4501s.6096 1.995 1.5 2.4501c-.375.1918-.7999.2999-1.25.2999-1.5188 0-2.75-1.2312-2.75-2.75z" fill="#d6dbe1" fill-rule="evenodd"/><path clip-rule="evenodd" d="m17 10.75c-4.5563 0-8.25 3.6937-8.25 8.25s3.6937 8.25 8.25 8.25 8.25-3.6937 8.25-8.25-3.6937-8.25-8.25-8.25zm-9.75 8.25c0-5.3848 4.3652-9.75 9.75-9.75s9.75 4.3652 9.75 9.75-4.3652 9.75-9.75 9.75-9.75-4.3652-9.75-9.75z" fill="#000" fill-rule="evenodd"/><path clip-rule="evenodd" d="m17 17.75c-.6904 0-1.25.5596-1.25 1.25s.5596 1.25 1.25 1.25 1.25-.5596 1.25-1.25-.5596-1.25-1.25-1.25zm-2.75 1.25c0-1.5188 1.2312-2.75 2.75-2.75s2.75 1.2312 2.75 2.75-1.2312 2.75-2.75 2.75-2.75-1.2312-2.75-2.75z" fill="#000" fill-rule="evenodd"/><path d="m28 9c0 .55228-.4477 1-1 1s-1-.44772-1-1 .4477-1 1-1 1 .44772 1 1z" fill="#2edf84"/><g clip-rule="evenodd" fill-rule="evenodd"><path d="m27 8.75c-.1381 0-.25.11193-.25.25s.1119.25.25.25.25-.11193.25-.25-.1119-.25-.25-.25zm-1.75.25c0-.9665.7835-1.75 1.75-1.75s1.75.7835 1.75 1.75-.7835 1.75-1.75 1.75-1.75-.7835-1.75-1.75z" fill="#000"/><path d="m12.3244 19.3774c.4856 2.2243 2.1581 4.0078 4.3201 4.6513l-.4278 1.4377c-2.682-.7982-4.7548-3.0074-5.3578-5.769z" fill="#000"/><path d="m27.75 10v4c0 .1563-.0488.3087-.1397.4359l-5 7-1.2206-.8718 4.8603-6.8044v-3.7597z" fill="#000"/><path d="m29.4996 26h2v1h-2z" fill="#90a4ad"/><path d="m28.4999 27.9996v2h-1v-2z" fill="#90a4ad"/></g></svg>