<svg fill="none" height="512" viewBox="0 0 36 36" width="512" xmlns="http://www.w3.org/2000/svg"><path d="m12.3749 4.70405c-6.79335-3.705446-9.00633-.51465-9.26365 1.54393-1.15797 9.26362 6.94775 25.47492 13.89545 26.24692 6.9477.7719 13.1234 0 15.4393-10.8076 2.3159-10.8075-3.0879-15.43932-7.7197-14.66736s-3.8598 2.31591-12.3514-2.31589z" fill="#efefef"/><path d="m18 14.25c-2.0711 0-3.75 1.6789-3.75 3.75s1.6789 3.75 3.75 3.75 3.75-1.6789 3.75-3.75-1.6789-3.75-3.75-3.75z" fill="#f3f3f1"/><path clip-rule="evenodd" d="m14.25 18c0-2.0711 1.6789-3.75 3.75-3.75.4383 0 .859.0752 1.25.2134-1.4565.5148-2.5 1.9038-2.5 3.5366s1.0435 3.0218 2.5 3.5366c-.391.1382-.8117.2134-1.25.2134-2.0711 0-3.75-1.6789-3.75-3.75z" fill="#d6dbe1" fill-rule="evenodd"/><path d="m18 9.75c-5.1086 0-9.25 4.1414-9.25 9.25 0 2.6414 1.10713 5.0242 2.8826 6.7097.3977-.6347 1.0626-1.1385 1.7893-1.5018 1.2104-.6052 2.8301-.9579 4.5781-.9579s3.3677.3527 4.5781.9579c.7267.3633 1.3916.8671 1.7893 1.5018 1.7755-1.6855 2.8826-4.0683 2.8826-6.7097 0-1.6861-.4504-3.2647-1.237-4.6245l1.2984-.751c.9151 1.5819 1.4386 3.4187 1.4386 5.3755 0 5.9371-4.8129 10.75-10.75 10.75s-10.75-4.8129-10.75-10.75 4.8129-10.75 10.75-10.75z" fill="#2edf84"/><path clip-rule="evenodd" d="m7.3219 17.75c-.04749.4101-.0719.8272-.0719 1.25 0 5.9371 4.8129 10.75 10.75 10.75s10.75-4.8129 10.75-10.75c0-.4226-.0244-.8396-.0719-1.2497-.2661 2.297-1.2562 4.3733-2.7363 5.9948-.4342.7252-.9649 1.386-1.5744 1.9646-.0782-.1248-.1667-.2445-.264-.3591-1.7338 1.1978-3.8366 1.8994-6.1034 1.8994s-4.3696-.7016-6.1034-1.8994c-.0973.1146-.1858.2343-.264.3591-.6095-.5786-1.1402-1.2394-1.5744-1.9646-1.48014-1.6215-2.4703-3.698-2.7363-5.9951zm19.8444-.0003c.0552-.4087.0837-.8259.0837-1.2497 0-.9113-.1316-1.7912-.3767-2.6221l-.8603.4976c.5887 1.0178.9891 2.158 1.1533 3.3742zm-18.33256.0003c-.05522-.4088-.08374-.8261-.08374-1.25 0-1.7346.47747-3.3577 1.3082-4.7451 1.9658-2.15368 4.796-3.5049 7.9418-3.5049v1.5c-4.6847 0-8.55601 3.4826-9.16626 8z" fill="#00b872" fill-rule="evenodd"/><path clip-rule="evenodd" d="m18 9.75c-5.1086 0-9.25 4.1414-9.25 9.25s4.1414 9.25 9.25 9.25 9.25-4.1414 9.25-9.25c0-1.6861-.4504-3.2647-1.237-4.6245l1.2984-.751c.9151 1.5819 1.4386 3.4187 1.4386 5.3755 0 5.9371-4.8129 10.75-10.75 10.75s-10.75-4.8129-10.75-10.75 4.8129-10.75 10.75-10.75z" fill="#000" fill-rule="evenodd"/><path d="m24 11.5c0 .8284-.6716 1.5-1.5 1.5s-1.5-.6716-1.5-1.5.6716-1.5 1.5-1.5 1.5.6716 1.5 1.5z" fill="#2edf84"/><g clip-rule="evenodd" fill-rule="evenodd"><path d="m23.25 10.2007c-.4484.2593-.75.7441-.75 1.2993s.3016 1.04.75 1.2993c-.2206.1277-.4768.2007-.75.2007-.8284 0-1.5-.6716-1.5-1.5s.6716-1.5 1.5-1.5c.2732 0 .5294.073.75.2007z" fill="#00b872"/><path d="m22.5 10.75c-.4142 0-.75.3358-.75.75s.3358.75.75.75.75-.3358.75-.75-.3358-.75-.75-.75zm-2.25.75c0-1.2426 1.0074-2.25 2.25-2.25s2.25 1.0074 2.25 2.25-1.0074 2.25-2.25 2.25-2.25-1.0074-2.25-2.25z" fill="#000"/><path d="m18 15.75c-1.2426 0-2.25 1.0074-2.25 2.25s1.0074 2.25 2.25 2.25 2.25-1.0074 2.25-2.25-1.0074-2.25-2.25-2.25zm-3.75 2.25c0-2.0711 1.6789-3.75 3.75-3.75s3.75 1.6789 3.75 3.75-1.6789 3.75-3.75 3.75-3.75-1.6789-3.75-3.75z" fill="#000"/><path d="m14.0928 25.5495c-1.0061.503-1.3428 1.0592-1.3428 1.4505h-1.5c0-1.2655 1.0064-2.2094 2.1719-2.7921 1.2104-.6052 2.8301-.9579 4.5781-.9579s3.3677.3527 4.5781.9579c1.1655.5827 2.1719 1.5266 2.1719 2.7921h-1.5c0-.3913-.3367-.9475-1.3428-1.4505-.9612-.4806-2.3415-.7995-3.9072-.7995s-2.946.3189-3.9072.7995z" fill="#000"/><path d="m23.25 8c0-.41421.3358-.75.75-.75h2.5v1.5h-1.75v2.75h-1.5z" fill="#000"/><path d="m9.99957 30.4996v2h-1v-2z" fill="#90a4ad"/><path d="m8 29.4999h-2v-1h2z" fill="#90a4ad"/></g></svg>