<?xml version="1.0" encoding="UTF-8"?>
<svg width="300px" height="300px" viewBox="0 0 300 300" xmlns="http://www.w3.org/2000/svg" xmlns:xlink="http://www.w3.org/1999/xlink" version="1.1">
 <!-- Generated by Pixelmator Pro 2.3.3 -->
 <defs>
  <text id="string" transform="matrix(1.0 0.0 0.0 1.0 28.0 41.0)" text-decoration="none" font-size="96" x="1.4000000000000057" y="83.0" fill="#00b872" font-family="YPCX--GB1-0, YPchuangxiang-R-GB">轻享</text>
 </defs>
 <use id="轻享" xlink:href="#string"/>
 <defs>
  <text id="string-1" transform="matrix(1.0 0.0 0.0 1.0 96.0 167.0)" text-decoration="none" font-size="96" x="1.4000000000000057" y="83.0" fill="#00b872" font-family="YPCX--GB1-0, YPchuangxiang-R-GB">云音</text>
 </defs>
 <use id="云音" xlink:href="#string-1"/>
 <defs>
  <text id="string-2" transform="matrix(1.0 0.0 0.0 1.0 2.0 154.0)" text-decoration="none" font-size="30" x="1.1982421875" y="26.0" fill="#00b872" font-family="YPCX--GB1-0, YPchuangxiang-R-GB">soft</text>
 </defs>
 <use id="soft" xlink:href="#string-2"/>
 <defs>
  <text id="string-3" transform="matrix(1.0 0.0 0.0 1.0 2.0 182.0)" text-decoration="none" font-size="30" x="1.88671875" y="26.0" fill="#00b872" font-family="YPCX--GB1-0, YPchuangxiang-R-GB">music</text>
 </defs>
 <use id="music" xlink:href="#string-3"/>
 <defs>
  <text id="string-4" transform="matrix(1.0 0.0 0.0 1.0 245.0 27.0)" y="56.0" font-family="YPCX--GB1-0, YPchuangxiang-R-GB" font-size="64" text-decoration="none" fill="#00b872" x="1.1437500000000007">&quot;</text>
 </defs>
 <use id="&quot;" xlink:href="#string-4"/>
 <path id="圆角矩形" d="M8.5 146 C7.119 146 6 147.119 6 148.5 L6 148.5 C6 149.881 7.119 151 8.5 151 L42.5 151 C43.881 151 45 149.881 45 148.5 L45 148.5 C45 147.119 43.881 146 42.5 146 Z" fill="#00b872" fill-opacity="1" stroke="none"/>
</svg>
