<?xml version="1.0" encoding="UTF-8"?>
<svg width="1200px" height="400px" viewBox="0 0 600 200" xmlns="http://www.w3.org/2000/svg" xmlns:xlink="http://www.w3.org/1999/xlink" version="1.1">
 <!-- Generated by Pixelmator Pro 2.3.3 -->
 <defs>
  <text id="string" transform="matrix(1.0 0.0 0.0 1.0 70.0 53.0)" x="1.8000000000000114" y="83.0" text-decoration="none" font-family="YPCX--GB1-0, YPchuangxiang-R-GB" font-size="96" fill="#00b872">轻享云音</text>
 </defs>
 <use id="轻享云音" xlink:href="#string"/>
 <defs>
  <text id="string-1" transform="matrix(1.0 0.0 0.0 1.0 496.0 53.0)" y="26.0" x="1.1982421875" font-size="30" font-family="YPCX--GB1-0, YPchuangxiang-R-GB" text-decoration="none" fill="#00b872">soft</text>
 </defs>
 <use id="soft" xlink:href="#string-1"/>
 <defs>
  <text id="string-2" transform="matrix(1.0 0.0 0.0 1.0 496.0 81.0)" x="1.88671875" y="26.0" text-decoration="none" font-family="YPCX--GB1-0, YPchuangxiang-R-GB" font-size="30" fill="#00b872">music</text>
 </defs>
 <use id="music" xlink:href="#string-2"/>
 <defs>
  <text id="string-3" transform="matrix(1.0 0.0 0.0 1.0 37.0 46.0)" y="56.0" x="1.1437500000000007" font-size="64" font-family="YPCX--GB1-0, YPchuangxiang-R-GB" text-decoration="none" fill="#00b872">&quot;</text>
 </defs>
 <use id="&quot;" xlink:href="#string-3"/>
 <path id="圆角矩形" d="M502.5 120 C501.119 120 500 121.119 500 122.5 L500 122.5 C500 123.881 501.119 125 502.5 125 L536.5 125 C537.881 125 539 123.881 539 122.5 L539 122.5 C539 121.119 537.881 120 536.5 120 Z" fill="#00b872" fill-opacity="1" stroke="none"/>
</svg>
