<svg fill="none" height="512" viewBox="0 0 36 36" width="512" xmlns="http://www.w3.org/2000/svg"><path d="m32.0055 20.2759c2.973-9.6626-1.4305-14.29204-3.9186-15.6743-7.0534-3.918558-18.62072.11939-21.16028 3.91856-3.91856 5.86214-4.97451 12.82114-1.79246 19.16454 3.3599 6.698 11.37674 6.3984 13.54814 2.7794 4.7023-7.8371 10.1883 0 13.3232-10.1882z" fill="#efefef"/><path clip-rule="evenodd" d="m7.25 15.5c0-.4142.33579-.75.75-.75h2.5c.4142 0 .75.3358.75.75s-.3358.75-.75.75h-2.5c-.41421 0-.75-.3358-.75-.75z" fill="#2edf84" fill-rule="evenodd"/><path clip-rule="evenodd" d="m7.25 20.5c0-.4142.33579-.75.75-.75h2.5c.4142 0 .75.3358.75.75s-.3358.75-.75.75h-2.5c-.41421 0-.75-.3358-.75-.75z" fill="#2edf84" fill-rule="evenodd"/><path d="m17.5 10.25c-4.2802 0-7.75 3.4698-7.75 7.75s3.4698 7.75 7.75 7.75 7.75-3.4698 7.75-7.75-3.4698-7.75-7.75-7.75z" fill="#2edf84"/><path clip-rule="evenodd" d="m9.75 18c0-4.2802 3.4698-7.75 7.75-7.75.4255 0 .8431.0343 1.25.1003-3.6859.5977-6.5 3.795-6.5 7.6497s2.8141 7.052 6.5 7.6497c-.4069.066-.8245.1003-1.25.1003-4.2802 0-7.75-3.4698-7.75-7.75z" fill="#00b872" fill-rule="evenodd"/><path clip-rule="evenodd" d="m8 14.75h2.5v1.5h-2.5z" fill="#000" fill-rule="evenodd"/><path clip-rule="evenodd" d="m8 19.75h2.5v1.5h-2.5z" fill="#000" fill-rule="evenodd"/><path clip-rule="evenodd" d="m6.75 23v-10h1.5v10z" fill="#000" fill-rule="evenodd"/><path d="m18 20c0 .8284-.6716 1.5-1.5 1.5s-1.5-.6716-1.5-1.5.6716-1.5 1.5-1.5 1.5.6716 1.5 1.5z" fill="#f3f3f1"/><g clip-rule="evenodd" fill-rule="evenodd"><path d="m17.25 18.7007c-.4484.2593-.75.7441-.75 1.2993s.3016 1.04.75 1.2993c-.2206.1277-.4768.2007-.75.2007-.8284 0-1.5-.6716-1.5-1.5s.6716-1.5 1.5-1.5c.2732 0 .5294.073.75.2007z" fill="#d6dbe1"/><path d="m16.5 19.25c-.4142 0-.75.3358-.75.75s.3358.75.75.75.75-.3358.75-.75-.3358-.75-.75-.75zm-2.25.75c0-1.2426 1.0074-2.25 2.25-2.25s2.25 1.0074 2.25 2.25-1.0074 2.25-2.25 2.25-2.25-1.0074-2.25-2.25z" fill="#000"/><path d="m17.6057 13.862c.2211-.1366.4972-.1491.7297-.0328l2 1-.6708 1.3416-.9146-.4573v4.2865h-1.5v-5.5c0-.2599.1346-.5013.3557-.638z" fill="#000"/><path d="m17.5 11.75c-3.4518 0-6.25 2.7982-6.25 6.25s2.7982 6.25 6.25 6.25 6.25-2.7982 6.25-6.25-2.7982-6.25-6.25-6.25zm-7.75 6.25c0-4.2802 3.4698-7.75 7.75-7.75s7.75 3.4698 7.75 7.75-3.4698 7.75-7.75 7.75-7.75-3.4698-7.75-7.75z" fill="#000"/><path d="m27.5 30c.2761 0 .5-.2239.5-.5s-.2239-.5-.5-.5-.5.2239-.5.5.2239.5.5.5zm0 1c.8284 0 1.5-.6716 1.5-1.5s-.6716-1.5-1.5-1.5-1.5.6716-1.5 1.5.6716 1.5 1.5 1.5z" fill="#a4afc1"/></g></svg>