<svg fill="none" height="512" viewBox="0 0 36 36" width="512" xmlns="http://www.w3.org/2000/svg"><path d="m19.1647 31.8238c3.5668.9138 8.7327-1.9406 10.9159-3.6387 7.2772-6.5495-.7278-19.64852-5.8218-22.55941-5.0941-2.9109-11.6436-1.45545-17.46542 1.45545-5.82179 2.91089-4.42076 15.94166.6733 17.39716 9.89562 2.8273 2.91092 5.094 11.69802 7.3455z" fill="#efefef"/><path d="m18.6431 19.6141c-.1355-.2259-.3797-.3641-.6431-.3641s-.5076.1382-.6431.3641l-3 5c-.139.2317-.1427.5203-.0095.7554.1331.2352.3824.3805.6526.3805h6c.2702 0 .5195-.1453.6526-.3805.1332-.2351.1295-.5237-.0095-.7554z" fill="#2edf84"/><g clip-rule="evenodd" fill-rule="evenodd"><path d="m18 19.25c.2634 0 .5076.1382.6431.3641l.6069 1.0115-2.3931 3.9885c-.139.2317-.1427.5203-.0095.7554.1331.2352.3824.3805.6526.3805h-2.5c-.2702 0-.5195-.1453-.6526-.3805-.1332-.2351-.1295-.5237.0095-.7554l3-5c.1355-.2259.3797-.3641.6431-.3641z" fill="#00b872"/><path d="m8.25 13c0-1.5188 1.23122-2.75 2.75-2.75h14c1.5188 0 2.75 1.2312 2.75 2.75v8c0 1.5188-1.2312 2.75-2.75 2.75h-2v-1.5h2c.6904 0 1.25-.5596 1.25-1.25v-8c0-.6904-.5596-1.25-1.25-1.25h-14c-.6904 0-1.25.5596-1.25 1.25v8c0 .6904.5596 1.25 1.25 1.25h2v1.5h-2c-1.51878 0-2.75-1.2312-2.75-2.75z" fill="#000"/><path d="m18 19.25c.2634 0 .5076.1382.6431.3641l3 5c.139.2317.1427.5203.0095.7554-.1331.2352-.3824.3805-.6526.3805h-6c-.2702 0-.5195-.1453-.6526-.3805-.1332-.2351-.1295-.5237.0095-.7554l3-5c.1355-.2259.3797-.3641.6431-.3641zm-1.6754 5h3.3508l-1.6754-2.7923z" fill="#000"/><path d="m9.12199 26.7675.51764 1.9318-.96592.2588-.51764-1.9318z" fill="#90a4ad"/><path d="m6.93182 26.3194-1.93185.5176-.25882-.9659 1.93185-.5176z" fill="#90a4ad"/></g></svg>