<svg fill="none" height="512" viewBox="0 0 36 36" width="512" xmlns="http://www.w3.org/2000/svg" xmlns:xlink="http://www.w3.org/1999/xlink"><clipPath id="clip0"><path d="m0 0h36v36h-36z"/></clipPath><g clip-path="url(#clip0)"><path d="m9.76342 11.7802c-7.98256 1.2803-10.748061 8.6339-9.461598 16.7816 1.513648 9.5866 13.238878.2164 18.958878 3.0764 6.9071 3.4536 9.4183-2.8449 12.0875-5.1804 6.9071-6.0437 4.317-18.13118-4.317-22.44813-8.6339-4.31696-9.533 6.52993-17.26778 7.77053z" fill="#efefef"/><path d="m21.5 16.25c-1.7949 0-3.25 1.4551-3.25 3.25s1.4551 3.25 3.25 3.25 3.25-1.4551 3.25-3.25-1.4551-3.25-3.25-3.25z" fill="#f3f3f1"/><path clip-rule="evenodd" d="m18.25 19.5c0-1.7949 1.4551-3.25 3.25-3.25.443 0 .8652.0886 1.25.2491-1.1745.4898-2 1.6489-2 3.0009s.8255 2.5111 2 3.0009c-.3848.1605-.807.2491-1.25.2491-1.7949 0-3.25-1.4551-3.25-3.25z" fill="#d6dbe1" fill-rule="evenodd"/><path d="m21.5 21.25c-1.821 0-3.4249.9277-4.3655 2.3328-.0725.1084-.1156.2338-.1248.3639l-.2578 3.6181c-.0165.2314.075.4574.2479.6121.3976.3558.9244.5731 1.5002.5731h5.7857c1.361 0 2.4643-1.1033 2.4643-2.4643v-.1948c0-2.6736-2.1673-4.8409-4.8409-4.8409z" fill="#2edf84"/><path clip-rule="evenodd" d="m17.1345 23.5828c.9406-1.4051 2.5445-2.3328 4.3655-2.3328h.4091c.3513 0 .694.0374 1.0241.1085-1.3714.2832-2.547 1.1013-3.2987 2.2243-.0725.1084-.1156.2338-.1248.3639l-.2578 3.6181c-.0165.2314.075.4574.2479.6121.3976.3558.9244.5731 1.5002.5731h-2.5c-.5758 0-1.1026-.2173-1.5002-.5731-.1729-.1547-.2644-.3807-.2479-.6121l.2578-3.6181c.0092-.1301.0523-.2555.1248-.3639z" fill="#00b872" fill-rule="evenodd"/><path d="m13.5 16.25c-1.7949 0-3.25 1.4551-3.25 3.25s1.4551 3.25 3.25 3.25 3.25-1.4551 3.25-3.25-1.4551-3.25-3.25-3.25z" fill="#f3f3f1"/><path clip-rule="evenodd" d="m10.25 19.5c0-1.7949 1.4551-3.25 3.25-3.25.443 0 .8652.0886 1.25.2491-1.1745.4898-2 1.6489-2 3.0009s.8255 2.5111 2 3.0009c-.3848.1605-.807.2491-1.25.2491-1.7949 0-3.25-1.4551-3.25-3.25z" fill="#d6dbe1" fill-rule="evenodd"/><path d="m13.5 21.25c-2.8995 0-5.25 2.3505-5.25 5.25 0 1.2426 1.00736 2.25 2.25 2.25h5.7857c1.361 0 2.4643-1.1033 2.4643-2.4643v-.1948c0-2.6736-2.1673-4.8409-4.8409-4.8409z" fill="#2edf84"/><path clip-rule="evenodd" d="m8.25 26.5c0-2.8995 2.3505-5.25 5.25-5.25h.4091c.3513 0 .6939.0374 1.0239.1085-2.3879.493-4.183 2.6076-4.183 5.1415 0 1.2426 1.0074 2.25 2.25 2.25h-2.5c-1.24264 0-2.25-1.0074-2.25-2.25z" fill="#00b872" fill-rule="evenodd"/><path d="m17.5 11.25c-1.2426 0-2.25 1.0074-2.25 2.25s1.0074 2.25 2.25 2.25 2.25-1.0074 2.25-2.25-1.0074-2.25-2.25-2.25z" fill="#2edf84"/><g clip-rule="evenodd" fill-rule="evenodd"><path d="m15.25 13.5c0-1.2426 1.0074-2.25 2.25-2.25.3592 0 .6988.0842 1 .2339-.7409.3682-1.25 1.1327-1.25 2.0161s.5091 1.6479 1.25 2.0161c-.3012.1497-.6408.2339-1 .2339-1.2426 0-2.25-1.0074-2.25-2.25z" fill="#00b872"/><path d="m13.5 17.75c-.9665 0-1.75.7835-1.75 1.75s.7835 1.75 1.75 1.75 1.75-.7835 1.75-1.75-.7835-1.75-1.75-1.75zm-3.25 1.75c0-1.7949 1.4551-3.25 3.25-3.25s3.25 1.4551 3.25 3.25-1.4551 3.25-3.25 3.25-3.25-1.4551-3.25-3.25z" fill="#000"/><path d="m21.5 17.75c-.9665 0-1.75.7835-1.75 1.75s.7835 1.75 1.75 1.75 1.75-.7835 1.75-1.75-.7835-1.75-1.75-1.75zm-3.25 1.75c0-1.7949 1.4551-3.25 3.25-3.25s3.25 1.4551 3.25 3.25-1.4551 3.25-3.25 3.25-3.25-1.4551-3.25-3.25z" fill="#000"/><path d="m8.25 26.5c0-2.8995 2.3505-5.25 5.25-5.25h.4091c2.6736 0 4.8409 2.1673 4.8409 4.8409v.1948c0 1.361-1.1033 2.4643-2.4643 2.4643h-5.7857c-1.24264 0-2.25-1.0074-2.25-2.25zm5.25-3.75c-2.0711 0-3.75 1.6789-3.75 3.75 0 .4142.3358.75.75.75h5.7857c.5326 0 .9643-.4317.9643-.9643v-.1948c0-1.8451-1.4958-3.3409-3.3409-3.3409z" fill="#000"/><path d="m17.1345 23.5828c.9406-1.4051 2.5445-2.3328 4.3655-2.3328h.4091c2.6736 0 4.8409 2.1673 4.8409 4.8409v.1948c0 1.361-1.1033 2.4643-2.4643 2.4643h-5.7857c-.5758 0-1.1026-.2173-1.5002-.5731l1.0004-1.1177c.1332.1192.3072.1908.4998.1908h5.7857c.5326 0 .9643-.4317.9643-.9643v-.1948c0-1.8451-1.4958-3.3409-3.3409-3.3409h-.4091c-1.2995 0-2.445.6603-3.119 1.6672z" fill="#000"/><path d="m17.5 12.75c-.4142 0-.75.3358-.75.75s.3358.75.75.75.75-.3358.75-.75-.3358-.75-.75-.75zm-2.25.75c0-1.2426 1.0074-2.25 2.25-2.25s2.25 1.0074 2.25 2.25-1.0074 2.25-2.25 2.25-2.25-1.0074-2.25-2.25z" fill="#000"/><path d="m18.6057 7.36201c.2211-.13665.4972-.14908.7297-.03283l2 1-.6708 1.34164-.9146-.45729v4.28647h-1.5v-5.5c0-.25993.1346-.50133.3557-.63799z" fill="#000"/><path d="m11.4999 8.99957h-1.99996v-1h1.99996z" fill="#90a4ad"/><path d="m12.4996 7v-2h1v2z" fill="#90a4ad"/></g></g></svg>